ToyLandingModel_states
version=1
nRows=4
nColumns=195
inDegrees=yes

# SIMM Motion File Header:
name ToyLandingModel_states
datacolumns 195
datarows 4
otherdata 1
range 0.26557635 0.26791904
endheader
time	/jointset/ground_platform/platform_rx/value	/jointset/ground_platform/platform_rx/speed	/jointset/ground_platform/platform_ry/value	/jointset/ground_platform/platform_ry/speed	/jointset/ground_platform/platform_rz/value	/jointset/ground_platform/platform_rz/speed	/jointset/ground_platform/platform_ty/value	/jointset/ground_platform/platform_ty/speed	/jointset/ground_pelvis/pelvis_tilt/value	/jointset/ground_pelvis/pelvis_tilt/speed	/jointset/ground_pelvis/pelvis_list/value	/jointset/ground_pelvis/pelvis_list/speed	/jointset/ground_pelvis/pelvis_rotation/value	/jointset/ground_pelvis/pelvis_rotation/speed	/jointset/ground_pelvis/pelvis_tx/value	/jointset/ground_pelvis/pelvis_tx/speed	/jointset/ground_pelvis/pelvis_ty/value	/jointset/ground_pelvis/pelvis_ty/speed	/jointset/ground_pelvis/pelvis_tz/value	/jointset/ground_pelvis/pelvis_tz/speed	/jointset/hip_r/hip_flexion_r/value	/jointset/hip_r/hip_flexion_r/speed	/jointset/hip_r/hip_adduction_r/value	/jointset/hip_r/hip_adduction_r/speed	/jointset/hip_r/hip_rotation_r/value	/jointset/hip_r/hip_rotation_r/speed	/jointset/knee_r/knee_angle_r/value	/jointset/knee_r/knee_angle_r/speed	/jointset/ankle_r/ankle_angle_r/value	/jointset/ankle_r/ankle_angle_r/speed	/jointset/subtalar_r/subtalar_angle_r/value	/jointset/subtalar_r/subtalar_angle_r/speed	/jointset/mtp_r/mtp_angle_r/value	/jointset/mtp_r/mtp_angle_r/speed	/jointset/hip_l/hip_flexion_l/value	/jointset/hip_l/hip_flexion_l/speed	/jointset/hip_l/hip_adduction_l/value	/jointset/hip_l/hip_adduction_l/speed	/jointset/hip_l/hip_rotation_l/value	/jointset/hip_l/hip_rotation_l/speed	/jointset/knee_l/knee_angle_l/value	/jointset/knee_l/knee_angle_l/speed	/jointset/ankle_l/ankle_angle_l/value	/jointset/ankle_l/ankle_angle_l/speed	/jointset/subtalar_l/subtalar_angle_l/value	/jointset/subtalar_l/subtalar_angle_l/speed	/jointset/mtp_l/mtp_angle_l/value	/jointset/mtp_l/mtp_angle_l/speed	/jointset/back/lumbar_extension/value	/jointset/back/lumbar_extension/speed	/jointset/back/lumbar_bending/value	/jointset/back/lumbar_bending/speed	/jointset/back/lumbar_rotation/value	/jointset/back/lumbar_rotation/speed	/forceset/glut_med1_r/activation	/forceset/glut_med1_r/fiber_length	/forceset/glut_med2_r/activation	/forceset/glut_med2_r/fiber_length	/forceset/glut_med3_r/activation	/forceset/glut_med3_r/fiber_length	/forceset/bifemlh_r/activation	/forceset/bifemlh_r/fiber_length	/forceset/bifemsh_r/activation	/forceset/bifemsh_r/fiber_length	/forceset/sar_r/activation	/forceset/sar_r/fiber_length	/forceset/add_mag2_r/activation	/forceset/add_mag2_r/fiber_length	/forceset/tfl_r/activation	/forceset/tfl_r/fiber_length	/forceset/pect_r/activation	/forceset/pect_r/fiber_length	/forceset/grac_r/activation	/forceset/grac_r/fiber_length	/forceset/glut_max1_r/activation	/forceset/glut_max1_r/fiber_length	/forceset/glut_max2_r/activation	/forceset/glut_max2_r/fiber_length	/forceset/glut_max3_r/activation	/forceset/glut_max3_r/fiber_length	/forceset/iliacus_r/activation	/forceset/iliacus_r/fiber_length	/forceset/psoas_r/activation	/forceset/psoas_r/fiber_length	/forceset/quad_fem_r/activation	/forceset/quad_fem_r/fiber_length	/forceset/gem_r/activation	/forceset/gem_r/fiber_length	/forceset/peri_r/activation	/forceset/peri_r/fiber_length	/forceset/rect_fem_r/activation	/forceset/rect_fem_r/fiber_length	/forceset/vas_int_r/activation	/forceset/vas_int_r/fiber_length	/forceset/med_gas_r/activation	/forceset/med_gas_r/fiber_length	/forceset/lat_gas_r/activation	/forceset/lat_gas_r/fiber_length	/forceset/soleus_r/activation	/forceset/soleus_r/fiber_length	/forceset/tib_post_r/activation	/forceset/tib_post_r/fiber_length	/forceset/flex_dig_r/activation	/forceset/flex_dig_r/fiber_length	/forceset/flex_hal_r/activation	/forceset/flex_hal_r/fiber_length	/forceset/tib_ant_r/activation	/forceset/tib_ant_r/fiber_length	/forceset/per_brev_r/activation	/forceset/per_brev_r/fiber_length	/forceset/per_long_r/activation	/forceset/per_long_r/fiber_length	/forceset/per_tert_r/activation	/forceset/per_tert_r/fiber_length	/forceset/ext_dig_r/activation	/forceset/ext_dig_r/fiber_length	/forceset/ext_hal_r/activation	/forceset/ext_hal_r/fiber_length	/forceset/glut_med1_l/activation	/forceset/glut_med1_l/fiber_length	/forceset/glut_med2_l/activation	/forceset/glut_med2_l/fiber_length	/forceset/glut_med3_l/activation	/forceset/glut_med3_l/fiber_length	/forceset/bifemlh_l/activation	/forceset/bifemlh_l/fiber_length	/forceset/bifemsh_l/activation	/forceset/bifemsh_l/fiber_length	/forceset/sar_l/activation	/forceset/sar_l/fiber_length	/forceset/add_mag2_l/activation	/forceset/add_mag2_l/fiber_length	/forceset/tfl_l/activation	/forceset/tfl_l/fiber_length	/forceset/pect_l/activation	/forceset/pect_l/fiber_length	/forceset/grac_l/activation	/forceset/grac_l/fiber_length	/forceset/glut_max1_l/activation	/forceset/glut_max1_l/fiber_length	/forceset/glut_max2_l/activation	/forceset/glut_max2_l/fiber_length	/forceset/glut_max3_l/activation	/forceset/glut_max3_l/fiber_length	/forceset/iliacus_l/activation	/forceset/iliacus_l/fiber_length	/forceset/psoas_l/activation	/forceset/psoas_l/fiber_length	/forceset/quad_fem_l/activation	/forceset/quad_fem_l/fiber_length	/forceset/gem_l/activation	/forceset/gem_l/fiber_length	/forceset/peri_l/activation	/forceset/peri_l/fiber_length	/forceset/rect_fem_l/activation	/forceset/rect_fem_l/fiber_length	/forceset/vas_int_l/activation	/forceset/vas_int_l/fiber_length	/forceset/med_gas_l/activation	/forceset/med_gas_l/fiber_length	/forceset/lat_gas_l/activation	/forceset/lat_gas_l/fiber_length	/forceset/soleus_l/activation	/forceset/soleus_l/fiber_length	/forceset/tib_post_l/activation	/forceset/tib_post_l/fiber_length	/forceset/flex_dig_l/activation	/forceset/flex_dig_l/fiber_length	/forceset/flex_hal_l/activation	/forceset/flex_hal_l/fiber_length	/forceset/tib_ant_l/activation	/forceset/tib_ant_l/fiber_length	/forceset/per_brev_l/activation	/forceset/per_brev_l/fiber_length	/forceset/per_long_l/activation	/forceset/per_long_l/fiber_length	/forceset/per_tert_l/activation	/forceset/per_tert_l/fiber_length	/forceset/ext_dig_l/activation	/forceset/ext_dig_l/fiber_length	/forceset/ext_hal_l/activation	/forceset/ext_hal_l/fiber_length	/forceset/ercspn_r/activation	/forceset/ercspn_r/fiber_length	/forceset/ercspn_l/activation	/forceset/ercspn_l/fiber_length	/forceset/intobl_r/activation	/forceset/intobl_r/fiber_length	/forceset/intobl_l/activation	/forceset/intobl_l/fiber_length	/forceset/extobl_r/activation	/forceset/extobl_r/fiber_length	/forceset/extobl_l/activation	/forceset/extobl_l/fiber_length
      0.26557635	     20.00000000	     -0.00000000	     -0.00000000	     -0.00000000	     -0.00000000	     -0.00000000	      0.25000000	      0.00000000	     -9.34237135	     10.10272843	     -0.24633900	     -1.19949526	      0.82031189	      2.91479481	      0.05142371	      0.00495175	      1.33518465	     -2.54499331	     -0.00248872	     -0.01209886	     15.50337891	    -15.41716372	     -1.64763391	     -4.64950860	      0.33198200	    -23.67359850	    -21.81690744	    -17.06761184	     16.35790791	     29.43759807	      0.65593523	     -3.37875398	     -0.00000000	     -0.00000000	    -19.99999998	      0.00000000	     10.00000028	      0.00000000	      4.99999985	      0.00000000	   -119.99999986	      0.00000000	     11.49999977	      0.00000000	     -0.03000064	      0.00000000	     -0.00000000	     -0.00000000	     -3.13248162	    -12.22009984	      0.25487467	      1.28418073	     -0.10064426	      1.50383321	      0.01125707	      0.05004723	     -0.00875085	      0.09088390	     -0.00875085	      0.07202960	     -0.00873861	      0.10815310	     -0.00740571	      0.17792124	     -0.00380626	      0.49783207	     -0.00870517	      0.08817401	      0.01635510	      0.11015684	      0.00729913	      0.07202449	     -0.00836899	      0.33940282	     -0.00875085	      0.09531064	     -0.00875085	      0.10602734	     -0.00875085	      0.12266716	      0.01218244	      0.10603206	      0.01164923	      0.09970554	     -0.00875085	      0.05214132	     -0.00855609	      0.02809151	     -0.00864171	      0.02600470	      0.01989479	      0.11526979	      0.01128213	      0.09156418	      0.01632937	      0.10552935	      0.02360027	      0.07544054	      0.02346355	      0.09714484	      0.21776174	      0.03618403	      0.21503137	      0.03167603	      0.21629813	      0.04159137	      0.20025560	      0.07232985	      0.60038360	      0.05215824	      0.60376927	      0.04996988	      0.60003330	      0.07769455	      0.60002154	      0.08678609	      0.20027290	      0.09802490	     -0.00875085	      0.05111649	     -0.00875085	      0.08716779	     -0.00875085	      0.06673534	     -0.00875085	      0.02428048	     -0.00875085	      0.13461995	     -0.00875085	      0.50111739	     -0.00875085	      0.06411506	     -0.00875085	      0.14730645	     -0.00875085	      0.08038127	     -0.00875085	      0.26731708	     -0.00875085	      0.07301880	     -0.00875085	      0.07209866	     -0.00875085	      0.06347041	     -0.00875085	      0.13085274	     -0.00875085	      0.12404021	     -0.00875085	      0.04824096	     -0.00875085	      0.02725649	     -0.00875085	      0.02565826	     -0.00875085	      0.20076796	     -0.00875085	      0.15340515	     -0.00875085	      0.07451080	     -0.00875085	      0.04609012	     -0.00875085	      0.09452687	     -0.00875085	      0.03918153	     -0.00875085	      0.03763102	     -0.00875085	      0.04686257	     -0.00875085	      0.07932340	     -0.00875085	      0.05533494	     -0.00875085	      0.05671373	     -0.00875085	      0.08210518	     -0.00875085	      0.09777132	     -0.00875085	      0.10605225	      0.00465396	      0.13390959	      0.00669640	      0.13423683	     -0.00875085	      0.10500645	     -0.00869833	      0.10606839	     -0.00875085	      0.14253029	     -0.00875085	      0.14298654
      0.26571133	     20.00000000	     -0.00000000	     -0.00000000	     -0.00000000	     -0.00000000	     -0.00000000	      0.25000000	      0.00000000	     -9.34100773	     10.10247064	     -0.24650093	     -1.19987890	      0.82070539	      2.91569221	      0.05142438	      0.00495603	      1.33484105	     -2.54629845	     -0.00249035	     -0.01210307	     15.50129764	    -15.42157000	     -1.64826163	     -4.65164879	      0.32878647	    -23.67553097	    -21.81921083	    -17.06243484	     16.36188099	     29.43272920	      0.65547906	     -3.38042087	     -0.00000000	     -0.00000000	    -19.99999998	      0.00000000	     10.00000028	      0.00000000	      4.99999985	      0.00000000	   -119.99999986	      0.00000000	     11.49999977	      0.00000000	     -0.03000064	      0.00000000	     -0.00000000	     -0.00000000	     -3.13413101	    -12.21946516	      0.25504803	      1.28454519	     -0.10044129	      1.50355593	      0.01125654	      0.05004825	     -0.00876823	      0.09088291	     -0.00876823	      0.07202729	     -0.00875599	      0.10814889	     -0.00742309	      0.17792000	     -0.00382117	      0.49783336	     -0.00872254	      0.08817348	      0.01635355	      0.11015930	      0.00729563	      0.07202588	     -0.00838636	      0.33940143	     -0.00876823	      0.09530801	     -0.00876823	      0.10602416	     -0.00876823	      0.12266352	      0.01218143	      0.10603409	      0.01164799	      0.09970748	     -0.00876823	      0.05213862	     -0.00857347	      0.02808959	     -0.00865909	      0.02600274	      0.01989458	      0.11527371	      0.01128128	      0.09156623	      0.01632503	      0.10553156	      0.02359398	      0.07544293	      0.02346060	      0.09714760	      0.21775738	      0.03618493	      0.21502711	      0.03167676	      0.21629536	      0.04159248	      0.20025491	      0.07232671	      0.60038179	      0.05215827	      0.60376900	      0.04997016	      0.60003315	      0.07769246	      0.60002144	      0.08678302	      0.20027216	      0.09802175	     -0.00876823	      0.05111649	     -0.00876823	      0.08716779	     -0.00876823	      0.06673534	     -0.00876823	      0.02428048	     -0.00876823	      0.13461995	     -0.00876823	      0.50111739	     -0.00876823	      0.06411506	     -0.00876823	      0.14730645	     -0.00876823	      0.08038127	     -0.00876823	      0.26731708	     -0.00876823	      0.07301880	     -0.00876823	      0.07209866	     -0.00876823	      0.06347041	     -0.00876823	      0.13085274	     -0.00876823	      0.12404021	     -0.00876823	      0.04824096	     -0.00876823	      0.02725649	     -0.00876823	      0.02565827	     -0.00876823	      0.20076953	     -0.00876823	      0.15340515	     -0.00876823	      0.07451080	     -0.00876823	      0.04609013	     -0.00876823	      0.09452687	     -0.00876823	      0.03918153	     -0.00876823	      0.03763107	     -0.00876823	      0.04686263	     -0.00876823	      0.07932340	     -0.00876823	      0.05533494	     -0.00876823	      0.05671374	     -0.00876823	      0.08210518	     -0.00876823	      0.09777132	     -0.00876823	      0.10605225	      0.00464606	      0.13391073	      0.00669120	      0.13423829	     -0.00876823	      0.10500461	     -0.00871571	      0.10606689	     -0.00876823	      0.14252799	     -0.00876823	      0.14298484
      0.26638622	     20.00000000	     -0.00000000	     -0.00000000	     -0.00000000	     -0.00000000	     -0.00000000	      0.25000000	      0.00000000	     -9.33419015	     10.10108428	     -0.24731136	     -1.20176337	      0.82267466	      2.92014784	      0.05142773	      0.00497760	      1.33312038	     -2.55282456	     -0.00249853	     -0.01212378	     15.49088242	    -15.44343786	     -1.65140452	     -4.66209120	      0.31280509	    -23.68431495	    -21.83071741	    -17.03687356	     16.38173765	     29.41283469	      0.65319350	     -3.39423365	     -0.00000000	     -0.00000000	    -19.99999998	      0.00000000	     10.00000028	      0.00000000	      4.99999985	      0.00000000	   -119.99999986	      0.00000000	     11.49999977	      0.00000000	     -0.03000064	      0.00000000	     -0.00000000	     -0.00000000	     -3.14237667	    -12.21613160	      0.25591555	      1.28628674	     -0.09942703	      1.50216478	      0.01125377	      0.05005337	     -0.00885512	      0.09087793	     -0.00885512	      0.07201577	     -0.00884288	      0.10812784	     -0.00750998	      0.17791379	     -0.00389573	      0.49783978	     -0.00880944	      0.08817086	      0.01634589	      0.11017157	      0.00727821	      0.07203284	     -0.00847326	      0.33939453	     -0.00885512	      0.09529485	     -0.00885512	      0.10600826	     -0.00885512	      0.12264528	      0.01217646	      0.10604424	      0.01164186	      0.09971715	     -0.00885512	      0.05212509	     -0.00866036	      0.02807996	     -0.00874598	      0.02599292	      0.01989347	      0.11529328	      0.01127697	      0.09157645	      0.01630343	      0.10554262	      0.02356261	      0.07545488	      0.02344582	      0.09716140	      0.21773569	      0.03618940	      0.21500600	      0.03168042	      0.21628155	      0.04159804	      0.20025149	      0.07231099	      0.60037288	      0.05215843	      0.60376749	      0.04997154	      0.60003237	      0.07768203	      0.60002094	      0.08676770	      0.20026851	      0.09800602	     -0.00885512	      0.05111649	     -0.00885512	      0.08716779	     -0.00885512	      0.06673534	     -0.00885512	      0.02428048	     -0.00885512	      0.13461995	     -0.00885512	      0.50111739	     -0.00885512	      0.06411506	     -0.00885512	      0.14730645	     -0.00885512	      0.08038127	     -0.00885512	      0.26731708	     -0.00885512	      0.07301880	     -0.00885512	      0.07209866	     -0.00885512	      0.06347041	     -0.00885512	      0.13085274	     -0.00885512	      0.12404021	     -0.00885512	      0.04824096	     -0.00885512	      0.02725649	     -0.00885512	      0.02565828	     -0.00885512	      0.20077273	     -0.00885512	      0.15340515	     -0.00885512	      0.07451082	     -0.00885512	      0.04609021	     -0.00885512	      0.09452687	     -0.00885512	      0.03918153	     -0.00885512	      0.03763134	     -0.00885512	      0.04686294	     -0.00885512	      0.07932340	     -0.00885512	      0.05533494	     -0.00885512	      0.05671378	     -0.00885512	      0.08210518	     -0.00885512	      0.09777134	     -0.00885512	      0.10605225	      0.00460651	      0.13391640	      0.00666523	      0.13424558	     -0.00885512	      0.10499536	     -0.00880260	      0.10605938	     -0.00885512	      0.14251649	     -0.00885512	      0.14297634
      0.26791904	     20.00000000	     -0.00000000	     -0.00000000	     -0.00000000	     -0.00000000	     -0.00000000	      0.25000000	      0.00000000	     -9.31870979	     10.09733524	     -0.24915660	     -1.20583549	      0.82715836	      2.93008602	      0.05143540	      0.00502776	      1.32919600	     -2.56764924	     -0.00251715	     -0.01216866	     15.46717297	    -15.49206235	     -1.65856796	     -4.68434082	      0.27648909	    -23.69915875	    -21.85678859	    -16.98092267	     16.42680395	     29.39535190	      0.64794854	     -3.45565462	     -0.00000000	     -0.00000000	    -19.99999998	      0.00000000	     10.00000028	      0.00000000	      4.99999985	      0.00000000	   -119.99999986	      0.00000000	     11.49999977	      0.00000000	     -0.03000064	      0.00000000	     -0.00000000	     -0.00000000	     -3.16109541	    -12.20757557	      0.25788993	      1.28975511	     -0.09712693	      1.49896509	      0.01124691	      0.05006497	     -0.00905247	      0.09086656	     -0.00905247	      0.07198951	     -0.00904023	      0.10808001	     -0.00770733	      0.17789974	     -0.00406497	      0.49785441	     -0.00900679	      0.08816492	      0.01632878	      0.11019942	      0.00723901	      0.07204868	     -0.00867061	      0.33937890	     -0.00905247	      0.09526488	     -0.00905247	      0.10597206	     -0.00905247	      0.12260378	      0.01216582	      0.10606733	      0.01162859	      0.09973912	     -0.00905247	      0.05209435	     -0.00885771	      0.02805807	     -0.00894333	      0.02597057	      0.01989085	      0.11533775	      0.01126682	      0.09159964	      0.01625504	      0.10556769	      0.02349241	      0.07548194	      0.02341232	      0.09719268	      0.21768794	      0.03619955	      0.21495950	      0.03168875	      0.21625095	      0.04161066	      0.20024390	      0.07227533	      0.60035339	      0.05215877	      0.60376224	      0.04997468	      0.60003068	      0.07765839	      0.60001985	      0.08673291	      0.20026040	      0.09797031	     -0.00905247	      0.05111649	     -0.00905247	      0.08716779	     -0.00905247	      0.06673534	     -0.00905247	      0.02428048	     -0.00905247	      0.13461995	     -0.00905247	      0.50111739	     -0.00905247	      0.06411506	     -0.00905247	      0.14730645	     -0.00905247	      0.08038127	     -0.00905247	      0.26731708	     -0.00905247	      0.07301880	     -0.00905247	      0.07209866	     -0.00905247	      0.06347041	     -0.00905247	      0.13085274	     -0.00905247	      0.12404021	     -0.00905247	      0.04824096	     -0.00905247	      0.02725649	     -0.00905247	      0.02565832	     -0.00905247	      0.20077410	     -0.00905247	      0.15340515	     -0.00905247	      0.07451085	     -0.00905247	      0.04609038	     -0.00905247	      0.09452687	     -0.00905247	      0.03918154	     -0.00905247	      0.03763194	     -0.00905247	      0.04686364	     -0.00905247	      0.07932340	     -0.00905247	      0.05533495	     -0.00905247	      0.05671387	     -0.00905247	      0.08210518	     -0.00905247	      0.09777137	     -0.00905247	      0.10605226	      0.00451659	      0.13392928	      0.00660618	      0.13426215	     -0.00905247	      0.10497436	     -0.00899995	      0.10604235	     -0.00905247	      0.14249037	     -0.00905247	      0.14295703
